<mxfile host="app.diagrams.net" modified="2025-01-13T05:56:05.701Z" agent="Mozilla/5.0 (Macintosh; Intel Mac OS X 10_15_7) AppleWebKit/537.36 (KHTML, like Gecko) Chrome/131.0.0.0 Safari/537.36" version="24.6.3" etag="fCe2muwrWHpnhzG7nf_s" type="github">
  <diagram name="Page-1" id="hik5HebmvnPIwXo95oxy">
    <mxGraphModel>
      <root>
        <mxCell id="0" />
        <mxCell id="1" parent="0" />
      </root>
    </mxGraphModel>
  </diagram>
</mxfile>
